<svg xmlns="http://www.w3.org/2000/svg" version="1.1" xmlns:xlink="http://www.w3.org/1999/xlink" xmlns:svgjs="http://svgjs.com/svgjs" width="1440" height="560" preserveAspectRatio="none" viewBox="0 0 1440 560"><g mask="url(&quot;#SvgjsMask1000&quot;)" fill="none"><rect width="1440" height="560" x="0" y="0" fill="#0e2a47"></rect><path d="M-105.48 376.82L-105.48 376.82" stroke="#132e65" stroke-width="1.5"></path><path d="M-105.48 376.82L-49.66 526.13" stroke="#132e65" stroke-width="1.5"></path><path d="M-105.48 376.82L99.69 363.17" stroke="#132e65" stroke-width="1.5"></path><path d="M-105.48 376.82L73.4 500.75" stroke="#132e65" stroke-width="1.5"></path><path d="M-105.48 376.82L-105.77 669.44" stroke="#132e65" stroke-width="1.5"></path><path d="M-49.66 526.13L-49.66 526.13" stroke="#132e65" stroke-width="1.5"></path><path d="M-49.66 526.13L73.4 500.75" stroke="#132e65" stroke-width="1.5"></path><path d="M-49.66 526.13L-105.77 669.44" stroke="#132e65" stroke-width="1.5"></path><path d="M-105.77 669.44L-105.77 669.44" stroke="#132e65" stroke-width="1.5"></path><path d="M-105.77 669.44L53.52 694.07" stroke="#132e65" stroke-width="1.5"></path><path d="M-105.77 669.44L73.4 500.75" stroke="#132e65" stroke-width="1.5"></path><path d="M-105.77 669.44L256.78 687.64" stroke="#132e65" stroke-width="1.5"></path><path d="M99.69 363.17L99.69 363.17" stroke="#132e65" stroke-width="1.5"></path><path d="M99.69 363.17L73.4 500.75" stroke="#132e65" stroke-width="1.5"></path><path d="M99.69 363.17L252.75 364.84" stroke="#132e65" stroke-width="1.5"></path><path d="M73.4 500.75L73.4 500.75" stroke="#132e65" stroke-width="1.5"></path><path d="M73.4 500.75L53.52 694.07" stroke="#132e65" stroke-width="1.5"></path><path d="M53.52 694.07L53.52 694.07" stroke="#132e65" stroke-width="1.5"></path><path d="M252.75 364.84L252.75 364.84" stroke="#132e65" stroke-width="1.5"></path><path d="M252.75 364.84L358.46 554.19" stroke="#132e65" stroke-width="1.5"></path><path d="M252.75 364.84L73.4 500.75" stroke="#132e65" stroke-width="1.5"></path><path d="M252.75 364.84L527.5 389.12" stroke="#132e65" stroke-width="1.5"></path><path d="M256.78 687.64L256.78 687.64" stroke="#132e65" stroke-width="1.5"></path><path d="M256.78 687.64L402.65 695.11" stroke="#132e65" stroke-width="1.5"></path><path d="M256.78 687.64L358.46 554.19" stroke="#132e65" stroke-width="1.5"></path><path d="M256.78 687.64L53.52 694.07" stroke="#132e65" stroke-width="1.5"></path><path d="M358.46 554.19L358.46 554.19" stroke="#132e65" stroke-width="1.5"></path><path d="M358.46 554.19L402.65 695.11" stroke="#132e65" stroke-width="1.5"></path><path d="M358.46 554.19L540.22 512.44" stroke="#132e65" stroke-width="1.5"></path><path d="M402.65 695.11L402.65 695.11" stroke="#132e65" stroke-width="1.5"></path><path d="M402.65 695.11L553.56 682.84" stroke="#132e65" stroke-width="1.5"></path><path d="M402.65 695.11L540.22 512.44" stroke="#132e65" stroke-width="1.5"></path><path d="M402.65 695.11L527.5 389.12" stroke="#132e65" stroke-width="1.5"></path><path d="M527.5 389.12L527.5 389.12" stroke="#132e65" stroke-width="1.5"></path><path d="M527.5 389.12L639.21 405.53" stroke="#132e65" stroke-width="1.5"></path><path d="M527.5 389.12L540.22 512.44" stroke="#132e65" stroke-width="1.5"></path><path d="M527.5 389.12L700.14 525.23" stroke="#132e65" stroke-width="1.5"></path><path d="M527.5 389.12L358.46 554.19" stroke="#132e65" stroke-width="1.5"></path><path d="M540.22 512.44L540.22 512.44" stroke="#132e65" stroke-width="1.5"></path><path d="M540.22 512.44L639.21 405.53" stroke="#132e65" stroke-width="1.5"></path><path d="M540.22 512.44L700.14 525.23" stroke="#132e65" stroke-width="1.5"></path><path d="M540.22 512.44L553.56 682.84" stroke="#132e65" stroke-width="1.5"></path><path d="M553.56 682.84L553.56 682.84" stroke="#132e65" stroke-width="1.5"></path><path d="M553.56 682.84L700.14 525.23" stroke="#132e65" stroke-width="1.5"></path><path d="M553.56 682.84L358.46 554.19" stroke="#132e65" stroke-width="1.5"></path><path d="M639.21 405.53L639.21 405.53" stroke="#132e65" stroke-width="1.5"></path><path d="M639.21 405.53L700.14 525.23" stroke="#132e65" stroke-width="1.5"></path><path d="M639.21 405.53L794.44 401.45" stroke="#132e65" stroke-width="1.5"></path><path d="M639.21 405.53L862.32 512.91" stroke="#132e65" stroke-width="1.5"></path><path d="M700.14 525.23L700.14 525.23" stroke="#132e65" stroke-width="1.5"></path><path d="M700.14 525.23L794.44 401.45" stroke="#132e65" stroke-width="1.5"></path><path d="M700.14 525.23L862.32 512.91" stroke="#132e65" stroke-width="1.5"></path><path d="M700.14 525.23L815.27 700.36" stroke="#132e65" stroke-width="1.5"></path><path d="M790.45 193.41L790.45 193.41" stroke="#132e65" stroke-width="1.5"></path><path d="M790.45 193.41L949.69 190.08" stroke="#132e65" stroke-width="1.5"></path><path d="M790.45 193.41L794.44 401.45" stroke="#132e65" stroke-width="1.5"></path><path d="M790.45 193.41L952.4 351.46" stroke="#132e65" stroke-width="1.5"></path><path d="M790.45 193.41L991.37 39.16" stroke="#132e65" stroke-width="1.5"></path><path d="M790.45 193.41L639.21 405.53" stroke="#132e65" stroke-width="1.5"></path><path d="M790.45 193.41L862.32 512.91" stroke="#132e65" stroke-width="1.5"></path><path d="M794.44 401.45L794.44 401.45" stroke="#132e65" stroke-width="1.5"></path><path d="M794.44 401.45L862.32 512.91" stroke="#132e65" stroke-width="1.5"></path><path d="M794.44 401.45L952.4 351.46" stroke="#132e65" stroke-width="1.5"></path><path d="M794.44 401.45L949.69 190.08" stroke="#132e65" stroke-width="1.5"></path><path d="M862.32 512.91L862.32 512.91" stroke="#132e65" stroke-width="1.5"></path><path d="M862.32 512.91L952.4 351.46" stroke="#132e65" stroke-width="1.5"></path><path d="M815.27 700.36L815.27 700.36" stroke="#132e65" stroke-width="1.5"></path><path d="M815.27 700.36L974.88 677.36" stroke="#132e65" stroke-width="1.5"></path><path d="M815.27 700.36L862.32 512.91" stroke="#132e65" stroke-width="1.5"></path><path d="M1006.89 -79.44L1006.89 -79.44" stroke="#132e65" stroke-width="1.5"></path><path d="M1006.89 -79.44L991.37 39.16" stroke="#132e65" stroke-width="1.5"></path><path d="M1006.89 -79.44L1146.07 -45.34" stroke="#132e65" stroke-width="1.5"></path><path d="M1006.89 -79.44L1130.65 100.9" stroke="#132e65" stroke-width="1.5"></path><path d="M1006.89 -79.44L1237.6 -52.93" stroke="#132e65" stroke-width="1.5"></path><path d="M991.37 39.16L991.37 39.16" stroke="#132e65" stroke-width="1.5"></path><path d="M991.37 39.16L1130.65 100.9" stroke="#132e65" stroke-width="1.5"></path><path d="M949.69 190.08L949.69 190.08" stroke="#132e65" stroke-width="1.5"></path><path d="M949.69 190.08L991.37 39.16" stroke="#132e65" stroke-width="1.5"></path><path d="M949.69 190.08L952.4 351.46" stroke="#132e65" stroke-width="1.5"></path><path d="M952.4 351.46L952.4 351.46" stroke="#132e65" stroke-width="1.5"></path><path d="M974.88 677.36L974.88 677.36" stroke="#132e65" stroke-width="1.5"></path><path d="M974.88 677.36L1135.9 693.61" stroke="#132e65" stroke-width="1.5"></path><path d="M974.88 677.36L862.32 512.91" stroke="#132e65" stroke-width="1.5"></path><path d="M1146.07 -45.34L1146.07 -45.34" stroke="#132e65" stroke-width="1.5"></path><path d="M1146.07 -45.34L1237.6 -52.93" stroke="#132e65" stroke-width="1.5"></path><path d="M1130.65 100.9L1130.65 100.9" stroke="#132e65" stroke-width="1.5"></path><path d="M1130.65 100.9L1146.07 -45.34" stroke="#132e65" stroke-width="1.5"></path><path d="M1152.05 360.83L1152.05 360.83" stroke="#132e65" stroke-width="1.5"></path><path d="M1152.05 360.83L1256.06 254.9" stroke="#132e65" stroke-width="1.5"></path><path d="M1152.05 360.83L1157.78 538.13" stroke="#132e65" stroke-width="1.5"></path><path d="M1152.05 360.83L1276.94 491.81" stroke="#132e65" stroke-width="1.5"></path><path d="M1157.78 538.13L1157.78 538.13" stroke="#132e65" stroke-width="1.5"></path><path d="M1157.78 538.13L1276.94 491.81" stroke="#132e65" stroke-width="1.5"></path><path d="M1157.78 538.13L1135.9 693.61" stroke="#132e65" stroke-width="1.5"></path><path d="M1157.78 538.13L1275.45 710.22" stroke="#132e65" stroke-width="1.5"></path><path d="M1157.78 538.13L974.88 677.36" stroke="#132e65" stroke-width="1.5"></path><path d="M1157.78 538.13L952.4 351.46" stroke="#132e65" stroke-width="1.5"></path><path d="M1135.9 693.61L1135.9 693.61" stroke="#132e65" stroke-width="1.5"></path><path d="M1135.9 693.61L1275.45 710.22" stroke="#132e65" stroke-width="1.5"></path><path d="M1135.9 693.61L1276.94 491.81" stroke="#132e65" stroke-width="1.5"></path><path d="M1237.6 -52.93L1237.6 -52.93" stroke="#132e65" stroke-width="1.5"></path><path d="M1237.6 -52.93L1286.72 93.05" stroke="#132e65" stroke-width="1.5"></path><path d="M1237.6 -52.93L1130.65 100.9" stroke="#132e65" stroke-width="1.5"></path><path d="M1237.6 -52.93L1453.22 -54.39" stroke="#132e65" stroke-width="1.5"></path><path d="M1286.72 93.05L1286.72 93.05" stroke="#132e65" stroke-width="1.5"></path><path d="M1286.72 93.05L1130.65 100.9" stroke="#132e65" stroke-width="1.5"></path><path d="M1286.72 93.05L1256.06 254.9" stroke="#132e65" stroke-width="1.5"></path><path d="M1286.72 93.05L1389.87 257.2" stroke="#132e65" stroke-width="1.5"></path><path d="M1286.72 93.05L1146.07 -45.34" stroke="#132e65" stroke-width="1.5"></path><path d="M1256.06 254.9L1256.06 254.9" stroke="#132e65" stroke-width="1.5"></path><path d="M1256.06 254.9L1389.87 257.2" stroke="#132e65" stroke-width="1.5"></path><path d="M1276.94 491.81L1276.94 491.81" stroke="#132e65" stroke-width="1.5"></path><path d="M1275.45 710.22L1275.45 710.22" stroke="#132e65" stroke-width="1.5"></path><path d="M1275.45 710.22L1414.92 680.61" stroke="#132e65" stroke-width="1.5"></path><path d="M1275.45 710.22L1276.94 491.81" stroke="#132e65" stroke-width="1.5"></path><path d="M1275.45 710.22L1551.17 666.72" stroke="#132e65" stroke-width="1.5"></path><path d="M1275.45 710.22L974.88 677.36" stroke="#132e65" stroke-width="1.5"></path><path d="M1453.22 -54.39L1453.22 -54.39" stroke="#132e65" stroke-width="1.5"></path><path d="M1453.22 -54.39L1571.25 -110.36" stroke="#132e65" stroke-width="1.5"></path><path d="M1453.22 -54.39L1543.86 80.57" stroke="#132e65" stroke-width="1.5"></path><path d="M1453.22 -54.39L1286.72 93.05" stroke="#132e65" stroke-width="1.5"></path><path d="M1453.22 -54.39L1561.41 208.13" stroke="#132e65" stroke-width="1.5"></path><path d="M1453.22 -54.39L1146.07 -45.34" stroke="#132e65" stroke-width="1.5"></path><path d="M1389.87 257.2L1389.87 257.2" stroke="#132e65" stroke-width="1.5"></path><path d="M1389.87 257.2L1448.91 370.12" stroke="#132e65" stroke-width="1.5"></path><path d="M1448.91 370.12L1448.91 370.12" stroke="#132e65" stroke-width="1.5"></path><path d="M1448.91 370.12L1588.57 339.88" stroke="#132e65" stroke-width="1.5"></path><path d="M1448.91 370.12L1561.41 208.13" stroke="#132e65" stroke-width="1.5"></path><path d="M1414.92 680.61L1414.92 680.61" stroke="#132e65" stroke-width="1.5"></path><path d="M1414.92 680.61L1551.17 666.72" stroke="#132e65" stroke-width="1.5"></path><path d="M1414.92 680.61L1276.94 491.81" stroke="#132e65" stroke-width="1.5"></path><path d="M1414.92 680.61L1603.77 524.37" stroke="#132e65" stroke-width="1.5"></path><path d="M1414.92 680.61L1135.9 693.61" stroke="#132e65" stroke-width="1.5"></path><path d="M1414.92 680.61L1157.78 538.13" stroke="#132e65" stroke-width="1.5"></path><path d="M1571.25 -110.36L1571.25 -110.36" stroke="#132e65" stroke-width="1.5"></path><path d="M1571.25 -110.36L1543.86 80.57" stroke="#132e65" stroke-width="1.5"></path><path d="M1543.86 80.57L1543.86 80.57" stroke="#132e65" stroke-width="1.5"></path><path d="M1543.86 80.57L1561.41 208.13" stroke="#132e65" stroke-width="1.5"></path><path d="M1561.41 208.13L1561.41 208.13" stroke="#132e65" stroke-width="1.5"></path><path d="M1561.41 208.13L1588.57 339.88" stroke="#132e65" stroke-width="1.5"></path><path d="M1588.57 339.88L1588.57 339.88" stroke="#132e65" stroke-width="1.5"></path><path d="M1588.57 339.88L1603.77 524.37" stroke="#132e65" stroke-width="1.5"></path><path d="M1588.57 339.88L1389.87 257.2" stroke="#132e65" stroke-width="1.5"></path><path d="M1588.57 339.88L1543.86 80.57" stroke="#132e65" stroke-width="1.5"></path><path d="M1603.77 524.37L1603.77 524.37" stroke="#132e65" stroke-width="1.5"></path><path d="M1603.77 524.37L1551.17 666.72" stroke="#132e65" stroke-width="1.5"></path><path d="M1551.17 666.72L1551.17 666.72" stroke="#132e65" stroke-width="1.5"></path><path d="M1551.17 666.72L1448.91 370.12" stroke="#132e65" stroke-width="1.5"></path><circle r="5" cx="-105.48" cy="376.82" fill="#132e65"></circle><circle r="5" cx="-49.66" cy="526.13" fill="#132e65"></circle><circle r="5" cx="-105.77" cy="669.44" fill="#132e65"></circle><circle r="5" cx="99.69" cy="363.17" fill="#132e65"></circle><circle r="5" cx="73.4" cy="500.75" fill="#132e65"></circle><circle r="5" cx="53.52" cy="694.07" fill="#132e65"></circle><circle r="5" cx="252.75" cy="364.84" fill="#132e65"></circle><circle r="5" cx="256.78" cy="687.64" fill="#132e65"></circle><circle r="5" cx="358.46" cy="554.19" fill="#132e65"></circle><circle r="5" cx="402.65" cy="695.11" fill="#132e65"></circle><circle r="5" cx="527.5" cy="389.12" fill="#132e65"></circle><circle r="5" cx="540.22" cy="512.44" fill="#132e65"></circle><circle r="5" cx="553.56" cy="682.84" fill="#132e65"></circle><circle r="5" cx="639.21" cy="405.53" fill="#132e65"></circle><circle r="5" cx="700.14" cy="525.23" fill="#132e65"></circle><circle r="5" cx="790.45" cy="193.41" fill="#132e65"></circle><circle r="5" cx="794.44" cy="401.45" fill="#132e65"></circle><circle r="5" cx="862.32" cy="512.91" fill="#132e65"></circle><circle r="5" cx="815.27" cy="700.36" fill="#132e65"></circle><circle r="5" cx="1006.89" cy="-79.44" fill="#132e65"></circle><circle r="5" cx="991.37" cy="39.16" fill="#132e65"></circle><circle r="5" cx="949.69" cy="190.08" fill="#132e65"></circle><circle r="5" cx="952.4" cy="351.46" fill="#132e65"></circle><circle r="5" cx="974.88" cy="677.36" fill="#132e65"></circle><circle r="5" cx="1146.07" cy="-45.34" fill="#132e65"></circle><circle r="5" cx="1130.65" cy="100.9" fill="#132e65"></circle><circle r="5" cx="1152.05" cy="360.83" fill="#132e65"></circle><circle r="5" cx="1157.78" cy="538.13" fill="#132e65"></circle><circle r="5" cx="1135.9" cy="693.61" fill="#132e65"></circle><circle r="5" cx="1237.6" cy="-52.93" fill="#132e65"></circle><circle r="5" cx="1286.72" cy="93.05" fill="#132e65"></circle><circle r="5" cx="1256.06" cy="254.9" fill="#132e65"></circle><circle r="5" cx="1276.94" cy="491.81" fill="#132e65"></circle><circle r="5" cx="1275.45" cy="710.22" fill="#132e65"></circle><circle r="5" cx="1453.22" cy="-54.39" fill="#132e65"></circle><circle r="5" cx="1389.87" cy="257.2" fill="#132e65"></circle><circle r="5" cx="1448.91" cy="370.12" fill="#132e65"></circle><circle r="5" cx="1414.92" cy="680.61" fill="#132e65"></circle><circle r="5" cx="1571.25" cy="-110.36" fill="#132e65"></circle><circle r="5" cx="1543.86" cy="80.57" fill="#132e65"></circle><circle r="5" cx="1561.41" cy="208.13" fill="#132e65"></circle><circle r="5" cx="1588.57" cy="339.88" fill="#132e65"></circle><circle r="5" cx="1603.77" cy="524.37" fill="#132e65"></circle><circle r="5" cx="1551.17" cy="666.72" fill="#132e65"></circle><path d="M-92.4 667.98L-92.4 667.98" stroke="hsl(228.5, 77.2%, 51.5%)" stroke-width="1.5"></path><path d="M-92.4 667.98L-54.83 531.1" stroke="hsl(228.5, 77.2%, 51.5%)" stroke-width="1.5"></path><path d="M-92.4 667.98L112.04 657.6" stroke="hsl(228.5, 77.2%, 51.5%)" stroke-width="1.5"></path><path d="M261.65 648.82L261.65 648.82" stroke="hsl(228.5, 77.2%, 51.5%)" stroke-width="1.5"></path><path d="M261.65 648.82L252.21 520.77" stroke="hsl(228.5, 77.2%, 51.5%)" stroke-width="1.5"></path><path d="M261.65 648.82L112.04 657.6" stroke="hsl(228.5, 77.2%, 51.5%)" stroke-width="1.5"></path><path d="M261.65 648.82L409.97 697.95" stroke="hsl(228.5, 77.2%, 51.5%)" stroke-width="1.5"></path><path d="M261.65 648.82L389.12 496.56" stroke="hsl(228.5, 77.2%, 51.5%)" stroke-width="1.5"></path><path d="M639.6 488.96L639.6 488.96" stroke="hsl(228.5, 77.2%, 51.5%)" stroke-width="1.5"></path><path d="M639.6 488.96L544.23 532.38" stroke="hsl(228.5, 77.2%, 51.5%)" stroke-width="1.5"></path><path d="M639.6 488.96L704.54 395.1" stroke="hsl(228.5, 77.2%, 51.5%)" stroke-width="1.5"></path><path d="M639.6 488.96L708.23 668.53" stroke="hsl(228.5, 77.2%, 51.5%)" stroke-width="1.5"></path><path d="M639.6 488.96L839.52 525.66" stroke="hsl(228.5, 77.2%, 51.5%)" stroke-width="1.5"></path><path d="M639.6 488.96L842.7 397.65" stroke="hsl(228.5, 77.2%, 51.5%)" stroke-width="1.5"></path><path d="M842.7 397.65L842.7 397.65" stroke="hsl(228.5, 77.2%, 51.5%)" stroke-width="1.5"></path><path d="M842.7 397.65L839.52 525.66" stroke="hsl(228.5, 77.2%, 51.5%)" stroke-width="1.5"></path><path d="M842.7 397.65L704.54 395.1" stroke="hsl(228.5, 77.2%, 51.5%)" stroke-width="1.5"></path><path d="M842.7 397.65L996.78 383.76" stroke="hsl(228.5, 77.2%, 51.5%)" stroke-width="1.5"></path><path d="M804.29 676.13L804.29 676.13" stroke="hsl(228.5, 77.2%, 51.5%)" stroke-width="1.5"></path><path d="M804.29 676.13L708.23 668.53" stroke="hsl(228.5, 77.2%, 51.5%)" stroke-width="1.5"></path><path d="M804.29 676.13L839.52 525.66" stroke="hsl(228.5, 77.2%, 51.5%)" stroke-width="1.5"></path><path d="M983.78 653.2L983.78 653.2" stroke="hsl(228.5, 77.2%, 51.5%)" stroke-width="1.5"></path><path d="M983.78 653.2L964.28 548.64" stroke="hsl(228.5, 77.2%, 51.5%)" stroke-width="1.5"></path><path d="M983.78 653.2L1114.75 687.19" stroke="hsl(228.5, 77.2%, 51.5%)" stroke-width="1.5"></path><path d="M983.78 653.2L804.29 676.13" stroke="hsl(228.5, 77.2%, 51.5%)" stroke-width="1.5"></path><path d="M983.78 653.2L839.52 525.66" stroke="hsl(228.5, 77.2%, 51.5%)" stroke-width="1.5"></path><path d="M1444.28 -61.55L1444.28 -61.55" stroke="hsl(228.5, 77.2%, 51.5%)" stroke-width="1.5"></path><path d="M1444.28 -61.55L1306.66 -66.64" stroke="hsl(228.5, 77.2%, 51.5%)" stroke-width="1.5"></path><path d="M1444.28 -61.55L1585.01 -102.73" stroke="hsl(228.5, 77.2%, 51.5%)" stroke-width="1.5"></path><path d="M1444.28 -61.55L1403.89 81.76" stroke="hsl(228.5, 77.2%, 51.5%)" stroke-width="1.5"></path><path d="M1585.01 -102.73L1585.01 -102.73" stroke="hsl(228.5, 77.2%, 51.5%)" stroke-width="1.5"></path><path d="M1585.01 -102.73L1558.97 38.1" stroke="hsl(228.5, 77.2%, 51.5%)" stroke-width="1.5"></path><path d="M1585.01 -102.73L1403.89 81.76" stroke="hsl(228.5, 77.2%, 51.5%)" stroke-width="1.5"></path><path d="M1585.01 -102.73L1306.66 -66.64" stroke="hsl(228.5, 77.2%, 51.5%)" stroke-width="1.5"></path><path d="M1568.49 234.19L1568.49 234.19" stroke="hsl(228.5, 77.2%, 51.5%)" stroke-width="1.5"></path><path d="M1568.49 234.19L1557.62 376.05" stroke="hsl(228.5, 77.2%, 51.5%)" stroke-width="1.5"></path><path d="M1568.49 234.19L1399.36 194.99" stroke="hsl(228.5, 77.2%, 51.5%)" stroke-width="1.5"></path><path d="M1592.69 704.06L1592.69 704.06" stroke="hsl(228.5, 77.2%, 51.5%)" stroke-width="1.5"></path><path d="M1592.69 704.06L1593.53 551.7" stroke="hsl(228.5, 77.2%, 51.5%)" stroke-width="1.5"></path><path d="M1592.69 704.06L1428.22 651.06" stroke="hsl(228.5, 77.2%, 51.5%)" stroke-width="1.5"></path><path d="M-54.83 531.1L-54.83 531.1" stroke="hsl(228.5, 77.2%, 51.5%)" stroke-width="1.5"></path><path d="M-54.83 531.1L72.71 502.77" stroke="hsl(228.5, 77.2%, 51.5%)" stroke-width="1.5"></path><path d="M-54.83 531.1L112.04 657.6" stroke="hsl(228.5, 77.2%, 51.5%)" stroke-width="1.5"></path><path d="M-54.83 531.1L252.21 520.77" stroke="hsl(228.5, 77.2%, 51.5%)" stroke-width="1.5"></path><path d="M-54.83 531.1L261.65 648.82" stroke="hsl(228.5, 77.2%, 51.5%)" stroke-width="1.5"></path><path d="M-54.83 531.1L389.12 496.56" stroke="hsl(228.5, 77.2%, 51.5%)" stroke-width="1.5"></path><path d="M72.71 502.77L72.71 502.77" stroke="hsl(228.5, 77.2%, 51.5%)" stroke-width="1.5"></path><path d="M72.71 502.77L112.04 657.6" stroke="hsl(228.5, 77.2%, 51.5%)" stroke-width="1.5"></path><path d="M72.71 502.77L252.21 520.77" stroke="hsl(228.5, 77.2%, 51.5%)" stroke-width="1.5"></path><path d="M72.71 502.77L-92.4 667.98" stroke="hsl(228.5, 77.2%, 51.5%)" stroke-width="1.5"></path><path d="M72.71 502.77L261.65 648.82" stroke="hsl(228.5, 77.2%, 51.5%)" stroke-width="1.5"></path><path d="M112.04 657.6L112.04 657.6" stroke="hsl(228.5, 77.2%, 51.5%)" stroke-width="1.5"></path><path d="M252.21 520.77L252.21 520.77" stroke="hsl(228.5, 77.2%, 51.5%)" stroke-width="1.5"></path><path d="M252.21 520.77L389.12 496.56" stroke="hsl(228.5, 77.2%, 51.5%)" stroke-width="1.5"></path><path d="M252.21 520.77L112.04 657.6" stroke="hsl(228.5, 77.2%, 51.5%)" stroke-width="1.5"></path><path d="M252.21 520.77L409.97 697.95" stroke="hsl(228.5, 77.2%, 51.5%)" stroke-width="1.5"></path><path d="M252.21 520.77L544.23 532.38" stroke="hsl(228.5, 77.2%, 51.5%)" stroke-width="1.5"></path><path d="M389.12 496.56L389.12 496.56" stroke="hsl(228.5, 77.2%, 51.5%)" stroke-width="1.5"></path><path d="M389.12 496.56L544.23 532.38" stroke="hsl(228.5, 77.2%, 51.5%)" stroke-width="1.5"></path><path d="M389.12 496.56L409.97 697.95" stroke="hsl(228.5, 77.2%, 51.5%)" stroke-width="1.5"></path><path d="M409.97 697.95L409.97 697.95" stroke="hsl(228.5, 77.2%, 51.5%)" stroke-width="1.5"></path><path d="M409.97 697.95L544.23 532.38" stroke="hsl(228.5, 77.2%, 51.5%)" stroke-width="1.5"></path><path d="M409.97 697.95L708.23 668.53" stroke="hsl(228.5, 77.2%, 51.5%)" stroke-width="1.5"></path><path d="M544.23 532.38L544.23 532.38" stroke="hsl(228.5, 77.2%, 51.5%)" stroke-width="1.5"></path><path d="M544.23 532.38L704.54 395.1" stroke="hsl(228.5, 77.2%, 51.5%)" stroke-width="1.5"></path><path d="M704.54 395.1L704.54 395.1" stroke="hsl(228.5, 77.2%, 51.5%)" stroke-width="1.5"></path><path d="M708.23 668.53L708.23 668.53" stroke="hsl(228.5, 77.2%, 51.5%)" stroke-width="1.5"></path><path d="M708.23 668.53L839.52 525.66" stroke="hsl(228.5, 77.2%, 51.5%)" stroke-width="1.5"></path><path d="M708.23 668.53L544.23 532.38" stroke="hsl(228.5, 77.2%, 51.5%)" stroke-width="1.5"></path><path d="M708.23 668.53L704.54 395.1" stroke="hsl(228.5, 77.2%, 51.5%)" stroke-width="1.5"></path><path d="M839.52 525.66L839.52 525.66" stroke="hsl(228.5, 77.2%, 51.5%)" stroke-width="1.5"></path><path d="M839.52 525.66L964.28 548.64" stroke="hsl(228.5, 77.2%, 51.5%)" stroke-width="1.5"></path><path d="M839.52 525.66L704.54 395.1" stroke="hsl(228.5, 77.2%, 51.5%)" stroke-width="1.5"></path><path d="M996.78 383.76L996.78 383.76" stroke="hsl(228.5, 77.2%, 51.5%)" stroke-width="1.5"></path><path d="M996.78 383.76L1122.39 368.96" stroke="hsl(228.5, 77.2%, 51.5%)" stroke-width="1.5"></path><path d="M996.78 383.76L964.28 548.64" stroke="hsl(228.5, 77.2%, 51.5%)" stroke-width="1.5"></path><path d="M996.78 383.76L1139.39 511.26" stroke="hsl(228.5, 77.2%, 51.5%)" stroke-width="1.5"></path><path d="M996.78 383.76L1136.34 236.4" stroke="hsl(228.5, 77.2%, 51.5%)" stroke-width="1.5"></path><path d="M996.78 383.76L839.52 525.66" stroke="hsl(228.5, 77.2%, 51.5%)" stroke-width="1.5"></path><path d="M964.28 548.64L964.28 548.64" stroke="hsl(228.5, 77.2%, 51.5%)" stroke-width="1.5"></path><path d="M964.28 548.64L1139.39 511.26" stroke="hsl(228.5, 77.2%, 51.5%)" stroke-width="1.5"></path><path d="M1136.34 236.4L1136.34 236.4" stroke="hsl(228.5, 77.2%, 51.5%)" stroke-width="1.5"></path><path d="M1136.34 236.4L1122.39 368.96" stroke="hsl(228.5, 77.2%, 51.5%)" stroke-width="1.5"></path><path d="M1136.34 236.4L1281.31 188.45" stroke="hsl(228.5, 77.2%, 51.5%)" stroke-width="1.5"></path><path d="M1136.34 236.4L1273.25 344.99" stroke="hsl(228.5, 77.2%, 51.5%)" stroke-width="1.5"></path><path d="M1136.34 236.4L1276.54 44.1" stroke="hsl(228.5, 77.2%, 51.5%)" stroke-width="1.5"></path><path d="M1136.34 236.4L1399.36 194.99" stroke="hsl(228.5, 77.2%, 51.5%)" stroke-width="1.5"></path><path d="M1122.39 368.96L1122.39 368.96" stroke="hsl(228.5, 77.2%, 51.5%)" stroke-width="1.5"></path><path d="M1139.39 511.26L1139.39 511.26" stroke="hsl(228.5, 77.2%, 51.5%)" stroke-width="1.5"></path><path d="M1139.39 511.26L1122.39 368.96" stroke="hsl(228.5, 77.2%, 51.5%)" stroke-width="1.5"></path><path d="M1139.39 511.26L1307.91 550.85" stroke="hsl(228.5, 77.2%, 51.5%)" stroke-width="1.5"></path><path d="M1139.39 511.26L1114.75 687.19" stroke="hsl(228.5, 77.2%, 51.5%)" stroke-width="1.5"></path><path d="M1114.75 687.19L1114.75 687.19" stroke="hsl(228.5, 77.2%, 51.5%)" stroke-width="1.5"></path><path d="M1114.75 687.19L1247.23 679.44" stroke="hsl(228.5, 77.2%, 51.5%)" stroke-width="1.5"></path><path d="M1114.75 687.19L964.28 548.64" stroke="hsl(228.5, 77.2%, 51.5%)" stroke-width="1.5"></path><path d="M1306.66 -66.64L1306.66 -66.64" stroke="hsl(228.5, 77.2%, 51.5%)" stroke-width="1.5"></path><path d="M1306.66 -66.64L1276.54 44.1" stroke="hsl(228.5, 77.2%, 51.5%)" stroke-width="1.5"></path><path d="M1306.66 -66.64L1403.89 81.76" stroke="hsl(228.5, 77.2%, 51.5%)" stroke-width="1.5"></path><path d="M1306.66 -66.64L1281.31 188.45" stroke="hsl(228.5, 77.2%, 51.5%)" stroke-width="1.5"></path><path d="M1306.66 -66.64L1558.97 38.1" stroke="hsl(228.5, 77.2%, 51.5%)" stroke-width="1.5"></path><path d="M1276.54 44.1L1276.54 44.1" stroke="hsl(228.5, 77.2%, 51.5%)" stroke-width="1.5"></path><path d="M1281.31 188.45L1281.31 188.45" stroke="hsl(228.5, 77.2%, 51.5%)" stroke-width="1.5"></path><path d="M1281.31 188.45L1399.36 194.99" stroke="hsl(228.5, 77.2%, 51.5%)" stroke-width="1.5"></path><path d="M1281.31 188.45L1276.54 44.1" stroke="hsl(228.5, 77.2%, 51.5%)" stroke-width="1.5"></path><path d="M1281.31 188.45L1273.25 344.99" stroke="hsl(228.5, 77.2%, 51.5%)" stroke-width="1.5"></path><path d="M1281.31 188.45L1403.89 81.76" stroke="hsl(228.5, 77.2%, 51.5%)" stroke-width="1.5"></path><path d="M1281.31 188.45L1393.46 375.34" stroke="hsl(228.5, 77.2%, 51.5%)" stroke-width="1.5"></path><path d="M1273.25 344.99L1273.25 344.99" stroke="hsl(228.5, 77.2%, 51.5%)" stroke-width="1.5"></path><path d="M1273.25 344.99L1393.46 375.34" stroke="hsl(228.5, 77.2%, 51.5%)" stroke-width="1.5"></path><path d="M1273.25 344.99L1122.39 368.96" stroke="hsl(228.5, 77.2%, 51.5%)" stroke-width="1.5"></path><path d="M1307.91 550.85L1307.91 550.85" stroke="hsl(228.5, 77.2%, 51.5%)" stroke-width="1.5"></path><path d="M1307.91 550.85L1405.33 539.29" stroke="hsl(228.5, 77.2%, 51.5%)" stroke-width="1.5"></path><path d="M1307.91 550.85L1247.23 679.44" stroke="hsl(228.5, 77.2%, 51.5%)" stroke-width="1.5"></path><path d="M1307.91 550.85L1428.22 651.06" stroke="hsl(228.5, 77.2%, 51.5%)" stroke-width="1.5"></path><path d="M1307.91 550.85L1393.46 375.34" stroke="hsl(228.5, 77.2%, 51.5%)" stroke-width="1.5"></path><path d="M1307.91 550.85L1273.25 344.99" stroke="hsl(228.5, 77.2%, 51.5%)" stroke-width="1.5"></path><path d="M1247.23 679.44L1247.23 679.44" stroke="hsl(228.5, 77.2%, 51.5%)" stroke-width="1.5"></path><path d="M1247.23 679.44L1428.22 651.06" stroke="hsl(228.5, 77.2%, 51.5%)" stroke-width="1.5"></path><path d="M1247.23 679.44L1139.39 511.26" stroke="hsl(228.5, 77.2%, 51.5%)" stroke-width="1.5"></path><path d="M1247.23 679.44L1405.33 539.29" stroke="hsl(228.5, 77.2%, 51.5%)" stroke-width="1.5"></path><path d="M1247.23 679.44L983.78 653.2" stroke="hsl(228.5, 77.2%, 51.5%)" stroke-width="1.5"></path><path d="M1403.89 81.76L1403.89 81.76" stroke="hsl(228.5, 77.2%, 51.5%)" stroke-width="1.5"></path><path d="M1403.89 81.76L1399.36 194.99" stroke="hsl(228.5, 77.2%, 51.5%)" stroke-width="1.5"></path><path d="M1403.89 81.76L1276.54 44.1" stroke="hsl(228.5, 77.2%, 51.5%)" stroke-width="1.5"></path><path d="M1403.89 81.76L1558.97 38.1" stroke="hsl(228.5, 77.2%, 51.5%)" stroke-width="1.5"></path><path d="M1399.36 194.99L1399.36 194.99" stroke="hsl(228.5, 77.2%, 51.5%)" stroke-width="1.5"></path><path d="M1399.36 194.99L1393.46 375.34" stroke="hsl(228.5, 77.2%, 51.5%)" stroke-width="1.5"></path><path d="M1399.36 194.99L1276.54 44.1" stroke="hsl(228.5, 77.2%, 51.5%)" stroke-width="1.5"></path><path d="M1393.46 375.34L1393.46 375.34" stroke="hsl(228.5, 77.2%, 51.5%)" stroke-width="1.5"></path><path d="M1393.46 375.34L1557.62 376.05" stroke="hsl(228.5, 77.2%, 51.5%)" stroke-width="1.5"></path><path d="M1393.46 375.34L1405.33 539.29" stroke="hsl(228.5, 77.2%, 51.5%)" stroke-width="1.5"></path><path d="M1405.33 539.29L1405.33 539.29" stroke="hsl(228.5, 77.2%, 51.5%)" stroke-width="1.5"></path><path d="M1405.33 539.29L1428.22 651.06" stroke="hsl(228.5, 77.2%, 51.5%)" stroke-width="1.5"></path><path d="M1405.33 539.29L1593.53 551.7" stroke="hsl(228.5, 77.2%, 51.5%)" stroke-width="1.5"></path><path d="M1405.33 539.29L1557.62 376.05" stroke="hsl(228.5, 77.2%, 51.5%)" stroke-width="1.5"></path><path d="M1428.22 651.06L1428.22 651.06" stroke="hsl(228.5, 77.2%, 51.5%)" stroke-width="1.5"></path><path d="M1428.22 651.06L1593.53 551.7" stroke="hsl(228.5, 77.2%, 51.5%)" stroke-width="1.5"></path><path d="M1428.22 651.06L1393.46 375.34" stroke="hsl(228.5, 77.2%, 51.5%)" stroke-width="1.5"></path><path d="M1558.97 38.1L1558.97 38.1" stroke="hsl(228.5, 77.2%, 51.5%)" stroke-width="1.5"></path><path d="M1558.97 38.1L1444.28 -61.55" stroke="hsl(228.5, 77.2%, 51.5%)" stroke-width="1.5"></path><path d="M1558.97 38.1L1568.49 234.19" stroke="hsl(228.5, 77.2%, 51.5%)" stroke-width="1.5"></path><path d="M1557.62 376.05L1557.62 376.05" stroke="hsl(228.5, 77.2%, 51.5%)" stroke-width="1.5"></path><path d="M1557.62 376.05L1593.53 551.7" stroke="hsl(228.5, 77.2%, 51.5%)" stroke-width="1.5"></path><path d="M1557.62 376.05L1399.36 194.99" stroke="hsl(228.5, 77.2%, 51.5%)" stroke-width="1.5"></path><path d="M1557.62 376.05L1273.25 344.99" stroke="hsl(228.5, 77.2%, 51.5%)" stroke-width="1.5"></path><path d="M1593.53 551.7L1593.53 551.7" stroke="hsl(228.5, 77.2%, 51.5%)" stroke-width="1.5"></path><circle r="25" cx="-92.4" cy="667.98" fill="url(#SvgjsRadialGradient1001)"></circle><circle r="25" cx="261.65" cy="648.82" fill="url(#SvgjsRadialGradient1001)"></circle><circle r="25" cx="639.6" cy="488.96" fill="url(#SvgjsRadialGradient1001)"></circle><circle r="25" cx="842.7" cy="397.65" fill="url(#SvgjsRadialGradient1001)"></circle><circle r="25" cx="804.29" cy="676.13" fill="url(#SvgjsRadialGradient1001)"></circle><circle r="25" cx="983.78" cy="653.2" fill="url(#SvgjsRadialGradient1001)"></circle><circle r="25" cx="1444.28" cy="-61.55" fill="url(#SvgjsRadialGradient1001)"></circle><circle r="25" cx="1585.01" cy="-102.73" fill="url(#SvgjsRadialGradient1001)"></circle><circle r="25" cx="1568.49" cy="234.19" fill="url(#SvgjsRadialGradient1001)"></circle><circle r="25" cx="1592.69" cy="704.06" fill="url(#SvgjsRadialGradient1001)"></circle><circle r="5" cx="-54.83" cy="531.1" fill="#8b9ad9"></circle><circle r="5" cx="72.71" cy="502.77" fill="#8b9ad9"></circle><circle r="5" cx="112.04" cy="657.6" fill="#8b9ad9"></circle><circle r="5" cx="252.21" cy="520.77" fill="#8b9ad9"></circle><circle r="5" cx="389.12" cy="496.56" fill="#8b9ad9"></circle><circle r="5" cx="409.97" cy="697.95" fill="#8b9ad9"></circle><circle r="5" cx="544.23" cy="532.38" fill="#8b9ad9"></circle><circle r="5" cx="704.54" cy="395.1" fill="#8b9ad9"></circle><circle r="5" cx="708.23" cy="668.53" fill="#8b9ad9"></circle><circle r="5" cx="839.52" cy="525.66" fill="#8b9ad9"></circle><circle r="5" cx="996.78" cy="383.76" fill="#8b9ad9"></circle><circle r="5" cx="964.28" cy="548.64" fill="#8b9ad9"></circle><circle r="5" cx="1136.34" cy="236.4" fill="#8b9ad9"></circle><circle r="5" cx="1122.39" cy="368.96" fill="#8b9ad9"></circle><circle r="5" cx="1139.39" cy="511.26" fill="#8b9ad9"></circle><circle r="5" cx="1114.75" cy="687.19" fill="#8b9ad9"></circle><circle r="5" cx="1306.66" cy="-66.64" fill="#8b9ad9"></circle><circle r="5" cx="1276.54" cy="44.1" fill="#8b9ad9"></circle><circle r="5" cx="1281.31" cy="188.45" fill="#8b9ad9"></circle><circle r="5" cx="1273.25" cy="344.99" fill="#8b9ad9"></circle><circle r="5" cx="1307.91" cy="550.85" fill="#8b9ad9"></circle><circle r="5" cx="1247.23" cy="679.44" fill="#8b9ad9"></circle><circle r="5" cx="1403.89" cy="81.76" fill="#8b9ad9"></circle><circle r="5" cx="1399.36" cy="194.99" fill="#8b9ad9"></circle><circle r="5" cx="1393.46" cy="375.34" fill="#8b9ad9"></circle><circle r="5" cx="1405.33" cy="539.29" fill="#8b9ad9"></circle><circle r="5" cx="1428.22" cy="651.06" fill="#8b9ad9"></circle><circle r="5" cx="1558.97" cy="38.1" fill="#8b9ad9"></circle><circle r="5" cx="1557.62" cy="376.05" fill="#8b9ad9"></circle><circle r="5" cx="1593.53" cy="551.7" fill="#8b9ad9"></circle></g><defs><mask id="SvgjsMask1000"><rect width="1440" height="560" fill="#ffffff"></rect></mask><radialGradient id="SvgjsRadialGradient1001"><stop stop-color="#ffffff" offset="0.1"></stop><stop stop-color="#1735b3" offset="0.2"></stop><stop stop-color="rgba(23, 53, 179, 0)" offset="1"></stop></radialGradient></defs></svg>